<svg width="48" height="22" viewBox="0 0 48 22" fill="none" xmlns="http://www.w3.org/2000/svg">
<path d="M0 12.6433H12.8355V17.1445L0 17.159C0.0600239 19.3074 1.92076 21.1675 4.06482 21.23V21.2156H12.8355C14.982 21.1531 16.8379 19.2954 16.9003 17.1445V12.6433C16.8379 10.4948 14.9796 8.63235 12.8355 8.57227H4.06482V4.07105H16.9003V0H0V12.6433Z" fill="white"/>
<path d="M21.3925 0V21.0017L25.4573 16.9306V0H21.3925Z" fill="white"/>
<path d="M29.5634 2.96977L37.1085 10.4983L26.5772 21.0065H32.2784L39.9591 13.3427L47.5552 20.9222V15.2334L42.8097 10.4983L47.5552 5.7632V0.0744912L39.9591 7.65397L32.2883 0H29.5634V2.96977Z" fill="white"/>
</svg>
